<svg width="120" height="109" viewBox="0 0 120 109" fill="none" xmlns="http://www.w3.org/2000/svg">
<path d="M25.0485 38.5355L60 108.6L94.9515 38.5355H25.0485Z" fill="#FDAD00"/>
<path d="M0 38.5355L60 108.6L25.0485 38.5355H0Z" fill="#EB6C00"/>
<path d="M60 108.6L120 38.5355H94.9515L60 108.6Z" fill="#EB6C00"/>
<path d="M0 38.5355H25.0485L26.7961 3.50323L0 38.5355Z" fill="#FDAD00"/>
<path d="M94.9515 38.5355H120L93.2039 3.50323L94.9515 38.5355Z" fill="#FDAD00"/>
<path d="M60 0L26.7961 3.50323L25.0485 38.5355L60 0Z" fill="#FDD231"/>
<path d="M93.2039 3.50323L60 0L94.9515 38.5355L93.2039 3.50323Z" fill="#FDD231"/>
<path d="M25.0485 38.5355H94.9515L60 0L25.0485 38.5355Z" fill="#FEEEB7"/>
</svg>
